<svg xmlns="http://www.w3.org/2000/svg" width="20" height="20" viewBox="0 0 20 20">
  <path id="globe-alt" d="M13,23A10,10,0,1,0,3,13,10,10,0,0,0,13,23Zm3.117-2.872a7.782,7.782,0,0,0,4.639-6.545,12.811,12.811,0,0,1-3.382,1.192A16.451,16.451,0,0,1,16.117,20.128ZM9.883,5.872a7.8,7.8,0,0,0-4.414,5.177,4.884,4.884,0,0,0,1.362.841,11.031,11.031,0,0,0,1.73.588A17.477,17.477,0,0,1,9.883,5.872Zm1.007,9.251a13.834,13.834,0,0,0,1,4.045A4.581,4.581,0,0,0,12.8,20.6a1.093,1.093,0,0,0,.2.157,1.093,1.093,0,0,0,.2-.157,4.581,4.581,0,0,0,.914-1.436,13.834,13.834,0,0,0,1-4.045c-.68.065-1.386.1-2.11.1S11.57,15.188,10.89,15.123Zm-2.264-.348a16.451,16.451,0,0,0,1.257,5.352,7.782,7.782,0,0,1-4.639-6.545A12.811,12.811,0,0,0,8.625,14.776Zm6.6-1.9A19.818,19.818,0,0,1,13,13a19.82,19.82,0,0,1-2.222-.123,15.673,15.673,0,0,1,1.11-6.046A4.582,4.582,0,0,1,12.8,5.4a1.1,1.1,0,0,1,.2-.157,1.1,1.1,0,0,1,.2.157,4.582,4.582,0,0,1,.914,1.436A15.673,15.673,0,0,1,15.222,12.877Zm2.217-.4a17.476,17.476,0,0,0-1.321-6.605,7.8,7.8,0,0,1,4.414,5.177,4.883,4.883,0,0,1-1.362.841A11.028,11.028,0,0,1,17.438,12.477Z" transform="translate(-3 -3)" fill="#fd6f27" fill-rule="evenodd"/>
</svg>
