<svg xmlns="http://www.w3.org/2000/svg" width="26.634" height="26.609" viewBox="0 0 26.634 26.609">
  <g id="ic-actions-settings" transform="translate(0.751 0.751)">
    <path id="Trazado_37" data-name="Trazado 37" d="M12.551,3.746l.112-.275a2.5,2.5,0,0,1,4.662.2l.087.288a2.5,2.5,0,0,0,3.35,1.55l.262-.113a2.5,2.5,0,0,1,3.163,3.437l-.138.263a2.5,2.5,0,0,0,1.25,3.45l.275.112a2.5,2.5,0,0,1-.2,4.663l-.288.087a2.5,2.5,0,0,0-1.575,3.35l.113.262a2.5,2.5,0,0,1-3.438,3.163l-.262-.138a2.5,2.5,0,0,0-3.45,1.25l-.113.275a2.5,2.5,0,0,1-4.662-.2l-.088-.287a2.5,2.5,0,0,0-3.35-1.575L8,23.621a2.5,2.5,0,0,1-3.162-3.437l.137-.262a2.5,2.5,0,0,0-1.25-3.45l-.275-.113a2.5,2.5,0,0,1,.2-4.662l.288-.087a2.5,2.5,0,0,0,1.575-3.35L5.4,8A2.5,2.5,0,0,1,8.838,4.858L9.1,5a2.5,2.5,0,0,0,3.45-1.25Z" transform="translate(-1.947 -1.967)" fill="none" stroke="#000" stroke-linecap="round" stroke-linejoin="bevel" stroke-width="1.5" fill-rule="evenodd"/>
    <circle id="Elipse_16" data-name="Elipse 16" cx="4.888" cy="4.888" r="4.888" transform="translate(7.678 7.653)" fill="none" stroke="#000" stroke-linecap="round" stroke-linejoin="bevel" stroke-width="1.5"/>
  </g>
</svg>
