<svg xmlns="http://www.w3.org/2000/svg" width="26.5" height="21.75" viewBox="0 0 26.5 21.75">
  <g id="ic-folder-add" transform="translate(0.75 0.75)">
    <path id="Trazado_173" data-name="Trazado 173" d="M2,7.3H24.5A2.5,2.5,0,0,1,27,9.8V21.05a2.5,2.5,0,0,1-2.5,2.5H4.5A2.5,2.5,0,0,1,2,21.05Z" transform="translate(-2 -3.3)" fill="none" stroke="#00a6fc" stroke-linecap="round" stroke-linejoin="round" stroke-width="1.5"/>
    <path id="Trazado_174" data-name="Trazado 174" d="M2,12.85V5.35A1.25,1.25,0,0,1,3.138,4.1H14.213a1.112,1.112,0,0,1,.8.363L17,8.1" transform="translate(-2 -4.1)" fill="none" stroke="#00a6fc" stroke-linecap="round" stroke-linejoin="round" stroke-width="1.5"/>
    <line id="Línea_197" data-name="Línea 197" x1="7.5" transform="translate(8.75 12.375)" fill="none" stroke="#00a6fc" stroke-linecap="round" stroke-linejoin="bevel" stroke-width="1.5"/>
    <line id="Línea_198" data-name="Línea 198" y1="7.5" transform="translate(12.5 8.625)" fill="none" stroke="#00a6fc" stroke-linecap="round" stroke-linejoin="bevel" stroke-width="1.5"/>
  </g>
</svg>
