<svg xmlns="http://www.w3.org/2000/svg" width="21.5" height="17.5" viewBox="0 0 21.5 17.5">
  <g id="ic-statistics-2" transform="translate(-1.25 -3.25)">
    <line id="Línea_469" data-name="Línea 469" x2="20" transform="translate(2 20)" fill="none" stroke="#fff" stroke-linecap="round" stroke-linejoin="round" stroke-width="1.5"/>
    <path id="Trazado_366" data-name="Trazado 366" d="M5,20V8.2A.2.2,0,0,1,5.2,8H7.8a.2.2,0,0,1,.2.2V20" fill="none" stroke="#fff" stroke-linecap="round" stroke-linejoin="round" stroke-width="1.5"/>
    <path id="Trazado_367" data-name="Trazado 367" d="M11,20V4.27c0-.15.09-.27.2-.27h2.6c.11,0,.2.12.2.27V20" fill="none" stroke="#fff" stroke-linecap="round" stroke-linejoin="round" stroke-width="1.5"/>
    <path id="Trazado_368" data-name="Trazado 368" d="M17,20V11.15c0-.08.09-.15.2-.15h2.6c.11,0,.2.07.2.15V20" fill="none" stroke="#fff" stroke-linecap="round" stroke-linejoin="round" stroke-width="1.5"/>
  </g>
</svg>
