<svg xmlns="http://www.w3.org/2000/svg" width="19.5" height="21.5" viewBox="0 0 19.5 21.5">
  <g id="ic-shopping-house" transform="translate(-2.25 -1.25)">
    <rect id="Rectángulo_106" data-name="Rectángulo 106" width="18" height="20" rx="2" transform="translate(3 2)" fill="none" stroke="#fff" stroke-linecap="round" stroke-linejoin="round" stroke-width="1.5"/>
    <path id="Trazado_338" data-name="Trazado 338" d="M8,22V16a4,4,0,0,1,4-4h0a4,4,0,0,1,4,4v6" fill="none" stroke="#fff" stroke-linecap="round" stroke-linejoin="round" stroke-width="1.5" fill-rule="evenodd"/>
    <path id="Trazado_339" data-name="Trazado 339" d="M3,5H3A3,3,0,0,0,6,8H6A3,3,0,0,0,9,5V2" fill="none" stroke="#fff" stroke-linecap="round" stroke-linejoin="round" stroke-width="1.5" fill-rule="evenodd"/>
    <path id="Trazado_340" data-name="Trazado 340" d="M9,5H9a3,3,0,0,0,3,3h0a3,3,0,0,0,3-3V2" fill="none" stroke="#fff" stroke-linecap="round" stroke-linejoin="round" stroke-width="1.5" fill-rule="evenodd"/>
    <path id="Trazado_341" data-name="Trazado 341" d="M21,5h0a3,3,0,0,1-3,3h0a3,3,0,0,1-3-3V2" fill="none" stroke="#fff" stroke-linecap="round" stroke-linejoin="round" stroke-width="1.5" fill-rule="evenodd"/>
  </g>
</svg>
