<svg xmlns="http://www.w3.org/2000/svg" width="19.305" height="22.063" viewBox="0 0 19.305 22.063">
  <path id="Icon_awesome-trash" data-name="Icon awesome-trash" d="M18.616,1.379H13.445L13.04.573A1.034,1.034,0,0,0,12.113,0H7.188a1.022,1.022,0,0,0-.922.573l-.405.806H.689A.689.689,0,0,0,0,2.068V3.447a.689.689,0,0,0,.689.689H18.616a.689.689,0,0,0,.689-.689V2.068A.689.689,0,0,0,18.616,1.379ZM2.292,20.124a2.068,2.068,0,0,0,2.064,1.939H14.949a2.068,2.068,0,0,0,2.064-1.939l.914-14.608H1.379Z" transform="translate(0 0)" fill="#d21c16"/>
</svg>
