<svg id="Componente_1_1" data-name="Componente 1 – 1" xmlns="http://www.w3.org/2000/svg" width="583.367" height="670.783" viewBox="0 0 583.367 670.783">
  <defs>
    <style>
      .cls-1 {
        fill: #fff;
      }
    </style>
  </defs>
  <path id="Trazado_1" data-name="Trazado 1" class="cls-1" d="M224.588-441.9q-37.492,0-61.516,15.288T139.048-380.38q0,30.94,24.024,47.32t102.284,35.308q78.26,18.928,117.936,53.144T422.968-143.78q0,66.612-50.232,108.108C339.248-8.008,294.706-2.162,239.1,4.585,143.41,19.166-35.306,57.427-51.618,55.847l-16.015-73.44c105.175-24,220.957-40.616,302.332-55.173,32.907-4.65,58.078-7.436,74.336-19.326s24.388-27.664,24.388-47.32-7.644-34.944-22.932-45.864-41.617-20.869-78.988-29.848-65.763-17.229-85.176-24.752A192.414,192.414,0,0,1,94.64-269.36Q49.5-303.576,49.5-374.192t51.324-108.836q51.324-38.22,127.036-38.22a304.455,304.455,0,0,1,96.824,16.016q48.048,16.016,82.992,45.136L361.816-395.3q-22.568-20.384-61.152-33.488T224.588-441.9Z" transform="matrix(0.985, 0.174, -0.174, 0.985, 76.311, 525.073)"/>
  <rect id="Rectángulo_1" data-name="Rectángulo 1" class="cls-1" width="179" height="100" transform="translate(38 379.783)"/>
  <rect id="Rectángulo_3" data-name="Rectángulo 3" class="cls-1" width="69" height="46" rx="1" transform="translate(59 326.783)"/>
  <ellipse id="Elipse_1" data-name="Elipse 1" class="cls-1" cx="42.5" cy="43" rx="42.5" ry="43" transform="translate(345 584.783)"/>
  <ellipse id="Elipse_2" data-name="Elipse 2" class="cls-1" cx="42.5" cy="43" rx="42.5" ry="43" transform="translate(17 584.783)"/>
</svg>
